<?xml version="1.0" standalone="no"?>
<!DOCTYPE svg PUBLIC "-//W3C//DTD SVG 20010904//EN"
 "http://www.w3.org/TR/2001/REC-SVG-20010904/DTD/svg10.dtd">
<svg version="1.0" xmlns="http://www.w3.org/2000/svg"
 width="300.000000pt" height="300.000000pt" viewBox="0 0 300.000000 300.000000"
 preserveAspectRatio="xMidYMid meet">
<metadata>
Created by potrace 1.10, written by Peter Selinger 2001-2011
</metadata>
<g transform="translate(0.000000,300.000000) scale(0.100000,-0.100000)"
fill="#000000" stroke="none">
<path d="M1220 2864 c-212 -7 -525 -26 -685 -40 -214 -19 -504 -52 -516 -60
-13 -8 -11 -52 3 -56 6 -2 54 1 107 8 325 42 728 72 1084 81 l257 6 0 -24 0
-25 -95 4 c-180 8 -205 -7 -205 -127 0 -74 2 -81 26 -100 26 -20 39 -21 306
-21 l280 0 30 30 c29 29 30 34 26 100 -3 56 -8 75 -26 93 -21 21 -31 22 -152
22 -128 0 -130 0 -130 23 0 22 2 22 134 22 276 0 771 -32 1118 -73 103 -13
191 -21 197 -19 13 4 15 49 2 56 -24 15 -558 67 -866 85 -186 11 -744 20 -895
15z m548 -230 l-3 -55 -265 0 -265 0 -3 55 -3 56 271 0 271 0 -3 -56z"/>
<path d="M2356 2675 c-9 -9 -16 -28 -16 -41 0 -33 -51 -84 -84 -84 -35 0 -59
-26 -46 -51 6 -10 20 -19 31 -19 49 0 99 -45 99 -87 0 -32 24 -56 48 -49 16 6
22 15 22 38 0 35 56 98 88 98 33 0 52 11 52 29 0 25 -20 41 -51 41 -33 0 -76
39 -84 77 -13 58 -32 74 -59 48z m42 -146 c12 -18 11 -24 -2 -37 -14 -14 -17
-14 -36 3 -19 17 -19 19 -4 37 22 23 26 23 42 -3z"/>
<path d="M247 2524 c-4 -4 -7 -18 -7 -31 0 -56 -60 -123 -109 -123 -15 0 -36
-6 -47 -14 -27 -21 -8 -48 40 -58 69 -15 104 -50 115 -117 11 -64 71 -65 71
-1 0 45 40 93 90 109 58 18 73 25 77 38 6 18 -27 43 -58 43 -46 0 -101 56
-108 111 -5 38 -10 44 -31 47 -14 2 -29 0 -33 -4z m55 -221 l-29 -28 -27 29
-27 29 28 29 27 28 28 -29 28 -29 -28 -29z"/>
<path d="M2214 2036 c-28 -7 -68 -21 -89 -32 -35 -18 -44 -19 -119 -8 -326 48
-708 45 -1059 -7 -189 -27 -811 -156 -846 -174 -35 -17 -79 -68 -87 -99 -3
-12 -4 -103 -2 -202 3 -170 4 -182 30 -236 35 -75 104 -142 186 -181 l67 -32
375 -3 375 -3 103 -247 c99 -239 103 -253 143 -452 23 -113 46 -211 51 -217
15 -18 301 -18 316 -1 5 7 28 105 51 218 39 199 44 213 143 453 l103 249 155
-7 c219 -9 275 -9 446 2 136 9 158 13 215 40 78 36 149 106 187 182 26 54 27
64 30 235 2 98 1 189 -2 201 -8 32 -52 82 -87 100 -15 8 -59 22 -96 29 -59 13
-75 21 -120 65 -120 116 -306 166 -469 127z m309 -95 c88 -42 165 -118 208
-207 33 -66 34 -73 34 -184 0 -105 -2 -120 -27 -174 -83 -175 -220 -266 -403
-267 -130 -1 -230 44 -324 146 -211 229 -117 599 179 703 55 19 80 22 165 19
88 -3 108 -7 168 -36z m-673 7 c85 -6 156 -12 158 -14 2 -1 -14 -20 -36 -42
-48 -48 -90 -118 -114 -187 l-17 -50 -885 -3 -886 -2 0 25 c0 13 13 39 28 56
28 31 35 33 413 109 630 128 839 145 1339 108z m992 -178 c20 -6 49 -25 63
-42 l27 -31 -4 -171 c-3 -163 -4 -173 -30 -222 -35 -66 -115 -138 -176 -157
-103 -33 -133 -30 -72 7 37 22 103 103 136 168 60 119 69 279 21 396 -26 66
-25 68 35 52z m-1012 -223 l0 -42 -880 0 -880 0 0 43 0 42 880 0 880 0 0 -43z
m-1500 -202 c0 -88 2 -98 25 -120 l24 -25 433 0 c325 1 437 4 449 13 30 23 39
56 39 141 l0 86 270 0 c208 0 271 -3 274 -12 30 -106 99 -216 164 -263 22 -16
41 -32 41 -35 1 -3 -387 -4 -861 -2 -971 3 -919 -2 -1008 79 -58 52 -98 122
-107 188 l-6 45 132 0 131 0 0 -95z m906 79 c-3 -9 -6 -49 -6 -90 l0 -74 -417
2 -418 3 -3 88 -3 87 427 0 c384 0 426 -2 420 -16z m868 -300 c25 -9 19 -24
-9 -24 -24 0 -32 10 -18 23 8 8 8 8 27 1z m496 -9 c0 -8 -9 -15 -20 -15 -20 0
-26 11 -13 23 12 13 33 7 33 -8z m-724 -82 c-7 -16 -53 -121 -100 -235 -80
-190 -90 -221 -126 -399 -22 -106 -40 -194 -40 -196 0 -1 -49 -3 -110 -3 -105
0 -110 1 -115 22 -3 13 -21 101 -40 196 -31 155 -43 192 -121 379 -47 114 -92
220 -100 235 l-15 28 391 0 391 0 -15 -27z"/>
<path d="M2260 1896 c-95 -21 -205 -95 -198 -133 2 -10 33 -32 73 -51 69 -34
73 -34 201 -34 129 0 132 0 200 33 85 42 92 63 37 106 -56 44 -111 70 -178 82
-68 13 -64 13 -135 -3z m155 -67 c22 -6 55 -20 74 -32 l33 -20 -28 -15 c-37
-19 -252 -21 -308 -2 -34 11 -36 14 -23 27 23 23 116 52 167 53 25 0 63 -5 85
-11z"/>
<path d="M1989 1649 c-19 -37 -14 -167 11 -231 36 -98 131 -185 234 -218 56
-18 66 -1 66 116 0 86 -2 93 -30 129 -16 21 -42 63 -57 95 -26 53 -33 60 -101
94 -83 41 -107 44 -123 15z m192 -179 c44 -74 49 -89 49 -142 0 -32 -2 -58 -5
-58 -11 0 -61 34 -93 64 -51 47 -84 120 -90 199 l-5 68 47 -24 c39 -20 55 -38
97 -107z"/>
<path d="M2284 1660 c-77 -31 -69 -162 13 -196 28 -12 42 -13 70 -3 59 19 92
104 63 160 -22 40 -95 60 -146 39z m77 -60 c37 -20 18 -80 -26 -80 -43 0 -63
58 -27 79 22 13 29 13 53 1z"/>
<path d="M2558 1633 c-65 -30 -79 -41 -88 -68 -6 -18 -31 -61 -55 -96 l-45
-64 0 -91 c0 -115 10 -132 66 -114 103 33 197 120 235 218 24 63 30 194 10
231 -15 28 -32 26 -123 -16z m70 -106 c-6 -73 -41 -148 -90 -193 -32 -30 -82
-64 -93 -64 -3 0 -5 26 -5 58 0 52 6 68 48 139 37 63 56 86 87 101 22 12 44
21 49 21 5 1 6 -27 4 -62z"/>
<path d="M1367 1002 c-14 -16 -17 -43 -17 -164 0 -185 -6 -178 151 -178 161 0
154 -8 154 180 0 188 7 180 -155 180 -101 0 -119 -3 -133 -18z m223 -162 l0
-120 -90 0 -90 0 0 120 0 120 90 0 90 0 0 -120z"/>
<path d="M938 938 c-9 -7 -18 -24 -22 -38 -9 -39 -20 -50 -62 -65 -30 -10 -39
-18 -39 -36 0 -17 8 -25 32 -31 34 -9 73 -50 73 -77 0 -17 18 -41 31 -41 16 0
39 32 39 54 0 29 27 54 68 62 18 4 35 11 38 15 12 20 -8 47 -38 53 -41 8 -68
33 -68 62 0 12 -7 30 -16 38 -19 19 -16 19 -36 4z m28 -129 c10 -17 -13 -36
-27 -22 -12 12 -4 33 11 33 5 0 12 -5 16 -11z"/>
<path d="M385 778 c-78 -27 -131 -97 -142 -188 l-6 -48 -57 -4 c-43 -3 -69
-12 -98 -32 -63 -43 -73 -78 -70 -236 l3 -135 499 -3 c379 -2 502 1 513 10 12
10 14 37 11 143 -3 123 -5 134 -30 172 -33 50 -97 83 -161 83 l-47 0 0 43 c-1
85 -67 174 -147 196 -48 14 -228 13 -268 -1z m282 -78 c37 -22 60 -61 69 -119
l7 -41 -217 0 -216 0 0 43 c0 48 24 90 66 118 43 28 245 28 291 -1z m253 -247
c41 -24 50 -53 50 -158 l0 -95 -450 0 -450 0 0 101 0 101 34 34 34 34 377 0
c334 0 380 -2 405 -17z"/>
<path d="M2335 775 c-75 -26 -135 -116 -135 -202 0 -33 -1 -33 -47 -33 -64 0
-128 -33 -161 -83 -25 -38 -27 -49 -30 -172 -3 -106 -1 -133 11 -143 11 -9
134 -12 513 -10 l499 3 3 130 c1 72 0 140 -3 152 -8 33 -65 94 -102 109 -18 8
-53 14 -78 14 l-45 0 0 38 c0 83 -67 173 -149 201 -48 16 -227 13 -276 -4z
m288 -74 c41 -27 60 -59 67 -113 l6 -48 -219 0 -220 0 7 41 c9 58 32 97 69
119 46 28 248 29 290 1z m273 -265 l34 -34 0 -101 0 -101 -450 0 -450 0 0 95
c0 104 9 133 48 158 24 15 71 16 405 17 l379 0 34 -34z"/>
</g>
</svg>
