<?xml version="1.0" standalone="no"?>
<!DOCTYPE svg PUBLIC "-//W3C//DTD SVG 20010904//EN"
 "http://www.w3.org/TR/2001/REC-SVG-20010904/DTD/svg10.dtd">
<svg version="1.0" xmlns="http://www.w3.org/2000/svg"
 width="300.000000pt" height="300.000000pt" viewBox="0 0 300.000000 300.000000"
 preserveAspectRatio="xMidYMid meet">
<metadata>
Created by potrace 1.10, written by Peter Selinger 2001-2011
</metadata>
<g transform="translate(0.000000,300.000000) scale(0.100000,-0.100000)"
fill="#000000" stroke="none">
<path d="M629 2787 c-44 -29 -69 -80 -69 -141 l0 -50 -173 -175 c-139 -141
-176 -184 -185 -217 -9 -30 -12 -210 -12 -653 l0 -611 -50 0 -50 0 0 -51 0
-52 50 5 50 5 0 -91 c0 -100 15 -139 65 -172 20 -13 25 -25 25 -56 0 -50 30
-108 68 -130 17 -10 50 -18 76 -18 l46 0 0 -95 0 -95 45 0 45 0 0 95 0 96 141
-3 142 -3 -2 -93 -2 -92 50 0 51 0 0 95 0 95 51 0 c46 0 55 4 90 39 36 36 39
43 39 94 0 52 2 56 33 75 49 29 67 75 67 175 l0 85 45 -6 45 -5 0 52 0 51 -45
0 -45 0 0 608 c0 542 -2 614 -17 658 -14 41 -44 77 -190 225 l-173 176 0 54
c0 64 -24 110 -69 134 -44 22 -102 19 -142 -8z m105 -83 c11 -11 16 -35 16
-82 l0 -66 180 -181 c130 -130 183 -191 190 -215 6 -21 10 -267 10 -627 l0
-593 -145 0 -145 0 0 235 0 235 48 0 c59 0 103 26 125 73 36 75 8 154 -66 190
-93 46 -197 -26 -197 -138 l0 -35 -47 0 -48 0 -1 44 c-3 134 -155 191 -243 91
-25 -29 -31 -44 -31 -83 0 -26 6 -58 13 -72 20 -39 74 -70 123 -70 l44 0 0
-235 0 -235 -140 0 -140 0 0 604 c0 402 4 614 11 633 5 15 91 109 190 209
l179 181 0 64 c0 37 5 70 12 77 17 17 44 15 62 -4z m-176 -1168 c3 -35 2 -36
-30 -36 -19 0 -39 5 -46 12 -19 19 -14 55 10 72 32 23 62 1 66 -48z m380 17
c4 -29 -24 -53 -64 -53 -31 0 -34 3 -34 28 0 31 16 57 40 65 21 7 54 -16 58
-40z m-103 -78 l24 -20 -35 -37 c-19 -21 -34 -34 -34 -28 0 5 -11 21 -25 36
l-25 27 25 27 c14 14 25 33 25 41 1 9 4 7 11 -6 6 -11 22 -29 34 -40z m-193
-49 c-15 -17 -28 -32 -29 -34 -1 -2 -15 11 -31 29 l-30 34 27 31 26 31 32 -30
33 -31 -28 -30z m108 -251 l0 -235 -47 0 -48 0 0 235 0 235 48 0 47 0 0 -235z
m-486 -316 l-28 -29 -32 30 -31 31 31 32 31 32 29 -33 29 -33 -29 -30z m370
66 l27 -35 -50 0 -50 0 22 35 c12 19 23 34 23 35 1 0 14 -16 28 -35z m169 -33
c-25 -2 -47 -1 -50 2 -3 3 5 18 18 34 l24 29 26 -31 27 -31 -45 -3z m399 -33
l-29 -30 -31 30 -30 30 31 34 31 33 29 -33 29 -33 -30 -31z m-74 -89 c5 -120
44 -110 -421 -110 -300 0 -406 3 -415 12 -7 7 -12 43 -12 92 l0 81 422 -2 423
-3 3 -70z m-796 -153 l46 -12 -25 -30 c-18 -20 -28 -26 -31 -17 -2 7 -22 33
-43 58 -21 25 -39 50 -39 55 0 6 10 -2 23 -16 12 -15 42 -31 69 -38z m822 28
c-4 -8 -10 -15 -15 -15 -5 0 -21 -18 -36 -41 l-27 -41 -24 28 -24 28 47 11
c26 7 54 20 63 29 20 20 23 20 16 1z m-124 -118 c0 -18 -5 -38 -12 -45 -14
-14 -604 -17 -626 -4 -7 5 -15 25 -19 45 l-6 37 332 0 331 0 0 -33z m-470
-108 c0 -6 -11 -24 -25 -41 -14 -16 -25 -26 -25 -21 0 5 -9 19 -21 31 -11 12
-17 27 -14 32 9 14 85 13 85 -1z m373 3 c3 -4 -5 -19 -18 -34 l-23 -26 -26 27
c-14 15 -23 30 -19 34 9 9 81 9 86 -1z"/>
<path d="M1968 2791 c-248 -67 -472 -258 -539 -458 -33 -100 -25 -214 22 -314
48 -99 111 -174 211 -250 143 -108 304 -170 443 -172 181 -2 280 96 317 316
19 110 15 512 -6 612 -40 198 -136 286 -310 284 -39 0 -101 -8 -138 -18z m185
-29 c3 -4 -6 -20 -20 -36 l-25 -29 -23 29 c-13 16 -21 32 -18 36 6 10 80 10
86 0z m-202 -48 c-12 -15 -21 -35 -21 -45 0 -24 -12 -24 -35 1 -10 11 -28 20
-39 21 -26 1 69 49 97 49 17 0 17 -2 -2 -26z m105 -1022 c-3 -2 -38 6 -78 18
-285 87 -494 315 -475 521 8 94 54 178 145 269 64 63 201 160 227 160 4 0 5
-104 3 -230 l-3 -230 48 0 47 0 0 249 0 248 43 9 42 9 3 -509 c1 -280 0 -511
-2 -514z m169 999 c89 -50 115 -164 115 -491 -1 -292 -22 -402 -92 -467 -21
-19 -68 -43 -86 -43 -4 0 -7 232 -7 515 0 510 0 515 20 509 11 -3 33 -14 50
-23z m-90 -1008 c13 -16 25 -31 25 -35 0 -5 -22 -8 -50 -8 -27 0 -50 3 -50 6
0 6 43 62 48 63 2 1 14 -11 27 -26z"/>
<path d="M1874 2064 l1 -46 48 -2 47 -2 0 48 0 48 -49 0 -48 0 1 -46z"/>
<path d="M2678 2716 c-86 -50 -160 -94 -163 -97 -5 -6 32 -79 41 -79 4 0 315
178 321 184 2 2 -7 21 -19 43 l-23 39 -157 -90z"/>
<path d="M2530 2203 l0 -48 190 3 190 3 0 44 0 45 -190 0 -190 0 0 -47z"/>
<path d="M2531 1829 c-13 -22 -21 -42 -20 -43 7 -6 322 -186 325 -186 5 0 46
82 42 84 -2 1 -66 38 -143 81 -77 43 -149 84 -161 92 -19 12 -22 10 -43 -28z"/>
<path d="M2055 1403 c-131 -20 -272 -81 -391 -170 -98 -73 -165 -153 -213
-252 -67 -141 -53 -298 38 -438 42 -64 140 -162 214 -212 27 -18 85 -50 130
-71 254 -117 459 -86 541 83 46 93 59 188 60 442 0 244 -9 334 -45 432 -28 74
-106 156 -164 171 -52 14 -132 21 -170 15z m88 -77 c-15 -19 -30 -35 -33 -35
-3 0 -18 16 -33 35 l-29 34 62 0 62 0 -29 -34z m-192 -15 c-12 -16 -21 -39
-21 -50 0 -27 -8 -26 -48 8 l-34 29 54 20 c70 27 73 27 49 -7z m109 -515 l0
-515 -72 20 c-125 35 -242 103 -335 194 -98 97 -142 179 -150 279 -13 157 98
319 305 444 29 18 57 32 63 32 7 0 9 -72 7 -225 l-3 -225 48 0 47 0 0 245 0
244 33 10 c17 5 38 10 45 10 9 1 12 -108 12 -513z m137 503 c109 -41 142 -158
143 -499 0 -368 -34 -475 -165 -514 -20 -6 -20 -1 -20 509 0 283 3 515 7 515
4 0 19 -5 35 -11z m-44 -1061 c-2 -5 -25 -8 -49 -8 -25 0 -44 3 -42 8 2 4 12
21 23 39 l20 32 26 -32 c15 -18 25 -35 22 -39z"/>
<path d="M1872 655 l0 -45 49 0 49 0 0 45 0 45 -48 0 -49 0 -1 -45z"/>
<path d="M2668 1306 c-87 -50 -158 -93 -158 -96 0 -3 10 -21 23 -41 l22 -37
155 89 c85 49 159 90 164 92 10 3 -33 88 -43 86 -3 -1 -77 -42 -163 -93z"/>
<path d="M2530 798 l0 -48 191 0 190 0 -3 46 -3 45 -188 2 -187 2 0 -47z"/>
<path d="M2531 424 c-23 -38 -26 -54 -12 -54 6 0 79 -40 163 -89 l153 -88 23
40 c12 22 21 41 20 43 -5 4 -320 184 -323 184 -2 0 -12 -16 -24 -36z"/>
</g>
</svg>
